<?xml version="1.0" encoding="UTF-8"?><svg id="Layer_1" xmlns="http://www.w3.org/2000/svg" xmlns:xlink="http://www.w3.org/1999/xlink" viewBox="0 0 597.65 186.32"><defs><style>.cls-1{fill:#fff;stroke-width:0px;}</style></defs><path id="fullLogo" class="cls-1" d="m120.71,62.31h9.76v1.82c1.82-1.68,5.11-2.56,7.81-2.56,10.63,0,17.23,7.34,17.23,17.7s-6.86,18.57-17.5,18.57c-3.36,0-6.46-.54-7.54-1.75v14.67h-9.76v-48.45Zm9.76,12.32v11.17c1.08,1.62,3.43,2.96,6.19,2.96,5.45,0,8.75-3.43,8.75-8.75,0-6.19-3.1-9.35-8.21-9.35-3.23,0-5.45,1.62-6.73,3.97Z"/><path id="fullLogo-2" class="cls-1" d="m177.69,61.57c11.17,0,19.04,7.6,19.04,18.17s-7.87,18.1-19.04,18.1-18.91-7.6-18.91-18.1,7.74-18.17,18.91-18.17Zm0,27.19c5.32,0,8.95-3.36,8.95-9.02s-4.04-9.09-8.95-9.09-8.82,3.3-8.82,9.09c0,5.11,3.57,9.02,8.82,9.02Z"/><path id="fullLogo-3" class="cls-1" d="m200.44,72.41c0-6.73,5.59-10.83,15.07-10.83,6.66,0,12.32,3.1,14.54,6.33l-6.66,6.39c-2.29-2.36-5.45-3.63-9.83-3.63-1.82,0-3.03.4-3.03,1.68,0,3.03,19.85,2.09,19.85,14.47,0,7.67-6.86,11.04-14.81,11.04-8.55,0-14.27-3.9-16.76-8.48l7.74-5.25c1.88,2.42,5.79,4.64,10.09,4.64,2.36,0,3.63-.61,3.63-1.88,0-3.43-19.85-2.56-19.85-14.47Z"/><path id="fullLogo-4" class="cls-1" d="m240.44,48.18c3.16,0,5.45,2.09,5.45,4.85,0,2.89-2.29,4.98-5.45,4.98-3.43,0-5.52-2.09-5.52-4.98s2.29-4.85,5.52-4.85Zm-4.91,14.13h9.76v34.99h-9.76v-34.99Z"/><path id="fullLogo-5" class="cls-1" d="m249.02,62.31h6.66v-8.14h9.76v8.14h10.7v9.09h-10.7v11.37c0,4.24.94,5.86,3.57,5.86,2.29,0,4.11-.81,5.99-2.29l4.04,6.93c-2.42,2.56-6.19,4.44-10.97,4.44-7.34,0-12.38-3.97-12.38-12.05v-14.27h-6.66v-9.09Z"/><path id="fullLogo-6" class="cls-1" d="m280.98,62.36h4.18v1h-1.56v3.84h-1.07v-3.84h-1.55v-1Z"/><path id="fullLogo-7" class="cls-1" d="m285.71,62.36h1l1.55,2.32,1.47-2.32h.97v4.84h-1.07v-2.9l-1.26,1.93h-.28l-1.3-1.95v2.92h-1.07v-4.84Z"/><a xlink:href="59.4047058823529"><polygon id="fullLogo-8" class="cls-1" points="52.62 72.97 55.53 71.69 68.69 65.87 71.56 64.6 103.36 50.56 103.36 67.5 90.5 72.97 87.59 71.69 101.04 65.97 101.04 54.12 74.43 65.87 71.56 67.14 58.45 72.93 55.54 74.22 46.27 78.32 46.27 81.36 55.4 85.39 58.31 86.68 71.76 92.62 74.62 93.88 101.04 105.56 101.04 93.59 87.74 87.92 90.65 86.64 103.36 92.05 103.36 109.12 71.77 95.17 68.92 93.9 55.38 87.92 52.47 86.64 43.95 82.87 43.95 76.81 52.62 72.97"/></a><polygon class="cls-1" points="74.52 79.78 87.58 74.22 84.67 72.93 68.59 79.78 84.81 86.68 87.72 85.39 74.52 79.78"/><a xlink:href="59.4047058823529"><polygon id="fullLogo-9" class="cls-1" points="55.4 85.39 58.31 86.68 71.56 81.04 68.6 79.78 55.4 85.39"/></a><a xlink:href="59.4047058823529"><polygon id="fullLogo-10" class="cls-1" points="58.45 72.93 55.54 74.22 68.6 79.78 71.56 78.51 58.45 72.93"/></a><a xlink:href="59.4047058823529"><polygon id="fullLogo-11" class="cls-1" points="90.5 72.97 87.59 71.69 74.43 65.87 71.56 64.6 39.76 50.56 39.76 67.5 52.62 72.97 55.53 71.69 42.08 65.97 42.08 54.12 68.69 65.87 71.56 67.14 84.67 72.93 87.58 74.22 96.85 78.32 96.85 81.36 87.72 85.39 84.81 86.68 71.36 92.62 68.5 93.88 42.08 105.56 42.08 93.59 55.38 87.92 52.47 86.64 39.76 92.05 39.76 109.12 71.35 95.17 74.2 93.9 87.74 87.92 90.65 86.64 99.18 82.87 99.18 76.81 90.5 72.97"/></a><path class="cls-1" d="m325.48,54.99c-5.07,0-9.07,1.69-12,5.06-2.93,3.38-4.4,8-4.4,13.86s1.41,10.7,4.24,13.99c2.83,3.29,6.86,4.94,12.09,4.94,3.22,0,6.89-.58,11.01-1.74v4.7c-3.2,1.2-7.14,1.8-11.83,1.8-6.79,0-12.03-2.06-15.72-6.18-3.69-4.12-5.54-9.98-5.54-17.57,0-4.75.89-8.92,2.67-12.49,1.78-3.57,4.34-6.33,7.7-8.26,3.35-1.93,7.3-2.9,11.84-2.9,4.84,0,9.06.88,12.68,2.65l-2.27,4.61c-3.49-1.64-6.98-2.46-10.47-2.46Z"/><path class="cls-1" d="m373.2,79.66c0,5.63-1.42,10.03-4.26,13.2-2.84,3.16-6.76,4.75-11.76,4.75-3.09,0-5.83-.73-8.23-2.18-2.4-1.45-4.25-3.53-5.55-6.25s-1.96-5.89-1.96-9.52c0-5.63,1.41-10.02,4.23-13.17,2.82-3.14,6.73-4.71,11.73-4.71s8.68,1.61,11.53,4.83c2.85,3.22,4.27,7.57,4.27,13.06Zm-26.33,0c0,4.42.88,7.78,2.65,10.09,1.77,2.31,4.36,3.47,7.79,3.47s6.03-1.15,7.81-3.45c1.78-2.3,2.67-5.67,2.67-10.11s-.89-7.73-2.67-10.01c-1.78-2.28-4.4-3.42-7.87-3.42s-6.01,1.12-7.76,3.38-2.62,5.6-2.62,10.06Z"/><path class="cls-1" d="m404.56,96.97v-22.36c0-2.82-.64-4.92-1.92-6.31-1.28-1.39-3.29-2.08-6.02-2.08-3.62,0-6.27.98-7.95,2.93-1.68,1.96-2.52,5.18-2.52,9.68v18.13h-5.24v-34.57h4.26l.85,4.73h.25c1.07-1.7,2.58-3.02,4.51-3.96,1.93-.93,4.09-1.4,6.46-1.4,4.16,0,7.3,1,9.4,3.01s3.15,5.22,3.15,9.63v22.55h-5.24Z"/><path class="cls-1" d="m442.66,96.97v-22.36c0-2.82-.64-4.92-1.92-6.31-1.28-1.39-3.29-2.08-6.02-2.08-3.62,0-6.27.98-7.95,2.93-1.68,1.96-2.52,5.18-2.52,9.68v18.13h-5.24v-34.57h4.26l.85,4.73h.25c1.07-1.7,2.58-3.02,4.51-3.96,1.93-.93,4.09-1.4,6.46-1.4,4.16,0,7.3,1,9.4,3.01s3.15,5.22,3.15,9.63v22.55h-5.24Z"/><path class="cls-1" d="m471.86,97.6c-5.11,0-9.14-1.56-12.09-4.67-2.96-3.11-4.43-7.43-4.43-12.96s1.37-10,4.12-13.28c2.74-3.28,6.43-4.92,11.05-4.92,4.33,0,7.76,1.42,10.28,4.27,2.52,2.85,3.78,6.61,3.78,11.28v3.31h-23.81c.1,4.06,1.13,7.14,3.08,9.24,1.94,2.1,4.68,3.15,8.22,3.15,3.72,0,7.4-.78,11.04-2.33v4.67c-1.85.8-3.6,1.37-5.25,1.72s-3.64.52-5.98.52Zm-1.42-31.44c-2.78,0-4.99.9-6.64,2.71-1.65,1.81-2.62,4.31-2.92,7.51h18.07c0-3.3-.74-5.83-2.21-7.58s-3.58-2.63-6.31-2.63Z"/><path class="cls-1" d="m506.24,97.6c-5,0-8.88-1.54-11.62-4.62-2.74-3.08-4.12-7.44-4.12-13.07s1.39-10.25,4.18-13.4c2.79-3.15,6.75-4.73,11.91-4.73,1.66,0,3.32.18,4.98.54,1.66.36,2.96.78,3.91,1.26l-1.61,4.45c-1.16-.46-2.42-.85-3.78-1.15-1.37-.3-2.58-.46-3.63-.46-7.02,0-10.53,4.48-10.53,13.44,0,4.25.86,7.51,2.57,9.78s4.25,3.41,7.62,3.41c2.88,0,5.83-.62,8.86-1.86v4.64c-2.31,1.2-5.22,1.8-8.74,1.8Z"/><path class="cls-1" d="m535.37,93.28c.92,0,1.82-.07,2.68-.21.86-.14,1.54-.28,2.05-.43v4c-.57.27-1.4.5-2.51.68-1.1.18-2.1.27-2.98.27-6.69,0-10.03-3.52-10.03-10.57v-20.56h-4.95v-2.52l4.95-2.18,2.21-7.38h3.03v8.01h10.03v4.07h-10.03v20.34c0,2.08.49,3.68,1.48,4.79.99,1.11,2.34,1.67,4.07,1.67Z"/><path class="cls-1" d="m431.98,124.06c0-8.28,4.94-13.28,11.64-13.28,3.12,0,5.59,1.5,7.17,3.15l-2.21,2.45c-1.3-1.33-2.89-2.18-4.96-2.18-4.55,0-7.6,3.71-7.6,9.74s3.05,9.88,7.66,9.88c2.21,0,3.93-.98,5.43-2.66l2.21,2.38c-2.01,2.37-4.63,3.71-8.03,3.71-6.32,0-11.31-4.8-11.31-13.2Z"/><path class="cls-1" d="m455.86,111.26h3.89v22.24h12.29v3.3h-16.18v-25.54Z"/><path class="cls-1" d="m474.23,123.91c0-8.33,4.08-13.12,9.93-13.12s9.93,4.8,9.93,13.12-4.08,13.36-9.93,13.36-9.93-4.89-9.93-13.36Zm15.82,0c0-6.14-2.34-9.7-5.89-9.7s-5.89,3.56-5.89,9.7,2.34,9.93,5.89,9.93,5.89-3.66,5.89-9.93Z"/><path class="cls-1" d="m498.23,127.09v-15.84h3.95v16.05c0,4.69,2,6.54,4.87,6.54s4.95-1.85,4.95-6.54v-16.05h3.78v15.84c0,7.14-3.43,10.17-8.73,10.17s-8.82-3.03-8.82-10.17Z"/><path class="cls-1" d="m521.19,111.26h6.5c7.6,0,11.95,4.38,11.95,12.65s-4.35,12.89-11.75,12.89h-6.7v-25.54Zm6.24,22.35c5.33,0,8.17-3.32,8.17-9.69s-2.83-9.46-8.17-9.46h-2.33v19.15h2.33Z"/></svg>