<?xml version="1.0" encoding="UTF-8"?><svg id="Layer_1" xmlns="http://www.w3.org/2000/svg" viewBox="0 0 500 500"><defs><style>.cls-1{fill:#f7aa1b;}.cls-1,.cls-2,.cls-3,.cls-4,.cls-5,.cls-6,.cls-7,.cls-8,.cls-9{stroke-width:0px;}.cls-2{fill:#4998d3;}.cls-3{fill:#8a288a;}.cls-4{fill:#23b355;}.cls-5{fill:#a6ce38;}.cls-6{fill:#f05223;}.cls-7{fill:#ed1557;}.cls-8{fill:#010101;}.cls-9{fill:#02abaf;}</style></defs><path class="cls-8" d="m110.67,207.36v31.83c2.16-2.99,5.05-5.37,8.4-6.92,3.45-1.59,7.22-2.39,11.02-2.35,5.07-.08,10.08,1.2,14.49,3.71,4.25,2.45,7.72,6.04,10.03,10.37,2.41,4.44,3.62,9.56,3.62,15.36s-1.21,10.94-3.62,15.42c-2.29,4.34-5.77,7.95-10.03,10.41-4.41,2.51-9.41,3.79-14.49,3.71-4.13,0-18.37-.77-19.72-.77s-9.76.12-9.76.12v-79.34c.49-.15,1.23-.32,2.12-.54,1.28-.27,2.58-.47,3.88-.61.39-.05,1.59-.2,3.16-.32l.9-.07Zm28.19,69.82c2.86-1.74,5.18-4.23,6.71-7.2,1.68-3.28,2.52-6.93,2.44-10.62.08-3.69-.76-7.34-2.44-10.63-1.52-2.96-3.85-5.44-6.71-7.14-2.91-1.7-6.23-2.57-9.6-2.52-3.35-.04-6.65.83-9.56,2.51-2.88,1.68-5.21,4.16-6.71,7.14-1.67,3.29-2.5,6.94-2.44,10.63-.06,3.69.77,7.33,2.44,10.62,1.51,2.98,3.84,5.48,6.71,7.2,2.89,1.72,6.19,2.61,9.56,2.57,3.38.05,6.7-.84,9.6-2.56Z"/><path class="cls-8" d="m338.48,252.28c-.51-2.85-1.47-5.61-2.84-8.17-1.44-2.81-3.37-5.34-5.7-7.48-1.26-1.15-2.62-2.17-4.08-3.05-4.31-2.54-9.24-3.85-14.25-3.76-5.04-.08-10.01,1.22-14.36,3.76-4.25,2.51-7.71,6.15-9.99,10.52-2.46,4.67-3.71,9.87-3.63,15.15-.08,5.32,1.2,10.57,3.73,15.25,2.44,4.45,6.11,8.1,10.57,10.51,8.78,4.49,19.07,4.98,28.25,1.37,3.66-1.53,6.89-3.92,9.42-6.98l-2.2-2.67h0c-1-1.13-2.44-1.78-3.95-1.78-1.07,0-2.12.34-2.99.96h-.04c-3.48,2.47-7.64,3.71-12.49,3.7-5.47,0-10.04-1.54-13.73-4.63-3.68-3.09-5.84-7.18-6.47-12.26h33.48c1.57.01,3.14-.07,4.71-.24,1.5-.32,2.88-1.04,4.01-2.07,1.35-1.2,2.28-2.81,2.66-4.57.2-1.18.17-2.38-.1-3.55Zm-10.1-.21c-.22,1.02-.82,1.92-1.68,2.52-.45.31-.97.52-1.51.61-.16,0-2.18.04-2.18.04h-29.27c.56-4.94,2.47-8.93,5.73-11.98,3.26-3.05,7.31-4.58,12.15-4.58,2.86-.05,5.69.59,8.26,1.87,1.42.74,2.72,1.67,3.89,2.76,1.33,1.22,2.45,2.65,3.32,4.23.95,1.76,1.62,3.01,1.28,4.54Z"/><path class="cls-8" d="m230.47,208.91c.51-.15,1.25-.35,2.14-.54,1.28-.27,2.58-.47,3.88-.61.39-.05,1.59-.2,3.16-.32l.9-.07v51.89l30.34-28.78h12.2l-23.43,23.84,25.69,33.93h-12.36l-20.89-26.93s-9.73,8.24-10.77,11.15c-.48,1.24-.74,2.55-.77,3.88v11.89h-10.09v-79.34Z"/><path class="cls-8" d="m346.59,208.91c.51-.15,1.22-.35,2.14-.54,1.28-.27,2.58-.47,3.88-.61.39-.05,1.59-.2,3.16-.32l.89-.07v31.28c2.16-2.81,5-5.02,8.24-6.43,3.59-1.57,7.47-2.35,11.39-2.29,7.07,0,12.69,2.13,16.85,6.38,4.16,4.25,6.24,10.48,6.24,18.7v33.25h-10.08v-32.05c0-5.59-1.29-9.81-3.88-12.64-2.59-2.83-6.3-4.26-11.12-4.27-5.46,0-9.77,1.65-12.92,4.96-3.15,3.31-4.72,8.05-4.73,14.23v29.76h-10.07v-79.32Z"/><path class="cls-4" d="m205.26,233.59c-.89-1.15-1.83-2.26-2.84-3.31-3.11-3.31-4.77-3.96-5.75-4.16-.6-.12-1.22-.16-1.83-.13-2.62.12-4.43,1.51-6.01,2.73-1.6,1.24-3,2.72-4.14,4.4-.03.04-.04.09-.04.15v15.95c0,.1.05.19.14.23.04,0,.08,0,.12,0,.05,0,.11-.02.15-.05l20.16-15.44c.11-.09.13-.25.04-.36h0Z"/><path class="cls-9" d="m219.54,237.53c-.34-.52-.75-.99-1.22-1.4-1.94-1.77-4.2-2.06-6.18-2.32-2.01-.26-4.04-.19-6.03.18-.05.01-.1.04-.13.07l-11.28,11.28c-.07.07-.09.17-.06.26.03.09.11.16.21.17l25.17,3.34h.04c.13,0,.24-.09.25-.22.2-1.45.32-2.9.37-4.36.15-4.54-.55-6.17-1.12-7Z"/><path class="cls-2" d="m227.77,259.91c-.12-2.62-1.51-4.42-2.73-6.01-1.24-1.6-2.72-3-4.4-4.13-.04-.03-.09-.05-.14-.05h-15.95c-.1,0-.19.06-.23.15-.05.08-.05.18,0,.26l15.44,20.17c.05.06.12.1.2.1.06,0,.11-.02.15-.05,1.16-.88,2.28-1.83,3.34-2.82,3.31-3.11,3.95-4.77,4.16-5.74.12-.61.17-1.23.15-1.85Z"/><path class="cls-3" d="m219.76,271.19c0-.05-.03-.1-.07-.13l-11.28-11.24c-.07-.07-.17-.1-.26-.06-.09.03-.16.11-.17.21l-3.34,25.17c-.02.14.08.27.22.29,1.44.2,2.9.32,4.35.36h1.1c3.71,0,5.14-.61,5.9-1.14.51-.35.99-.76,1.4-1.22,1.77-1.95,2.06-4.2,2.32-6.18.26-2.01.19-4.05-.18-6.04Z"/><path class="cls-7" d="m203.89,269.39c-.08-.05-.19-.05-.27,0l-20.16,15.44c-.11.09-.13.25-.05.36.88,1.16,1.83,2.27,2.82,3.34,3.11,3.31,4.77,3.96,5.75,4.16.49.09.98.14,1.48.14h.37c2.63-.12,4.43-1.51,6.01-2.73,1.6-1.24,3-2.72,4.14-4.4.03-.04.04-.09.04-.15v-15.93c0-.1-.05-.18-.14-.23Z"/><path class="cls-6" d="m194.04,273.22c-.03-.09-.11-.16-.21-.17l-25.17-3.34c-.14-.02-.27.08-.29.22-.2,1.45-.32,2.91-.37,4.35-.13,4.54.61,6.17,1.13,7.01.35.52.76.99,1.22,1.4,1.94,1.77,4.2,2.06,6.18,2.32.81.1,1.62.15,2.44.15,1.21,0,2.42-.11,3.61-.34.05-.01.09-.04.13-.07l11.28-11.28c.06-.07.08-.17.04-.26Z"/><path class="cls-1" d="m184.33,268.7l-15.45-20.16c-.09-.11-.25-.13-.36-.05-1.15.89-2.25,1.83-3.3,2.83-3.31,3.11-3.96,4.77-4.16,5.74-.12.6-.16,1.22-.13,1.83.12,2.62,1.51,4.42,2.73,6.01,1.24,1.6,2.72,3,4.4,4.13.04.03.09.05.15.05h15.92c.14,0,.26-.11.26-.26,0-.06-.02-.11-.05-.16v.02Z"/><path class="cls-5" d="m183.82,233.45c-1.45-.2-2.9-.32-4.36-.36-4.54-.14-6.17.57-7.01,1.12-.51.35-.99.76-1.4,1.22-1.77,1.94-2.06,4.2-2.32,6.18-.26,2.01-.19,4.05.18,6.04.01.05.04.09.07.13l11.28,11.28s.11.08.18.08c.03,0,.05,0,.08,0,.09-.03.16-.11.17-.21l3.34-25.17c.03-.13-.05-.27-.18-.3-.01,0-.02,0-.03,0Z"/></svg>