<svg xmlns="http://www.w3.org/2000/svg" viewBox="0 0 500 500"><defs><style>.cls-13,.cls-15,.cls-5{stroke-width:0}.cls-5{fill:#506784}.cls-13{fill:#596f8a}.cls-15{fill:#fdfefe}</style></defs><path d="M128.87 272.09c-11.74 0-23.49-.14-35.23.08-4.01.07-5.75-1.37-5.72-5.82.16-23.74.07-47.49.08-71.24 0-4.7.77-5.49 5.4-5.5 23.96-.02 47.91-.02 71.87 0 4.62 0 5.39.79 5.39 5.5.02 23.75-.08 47.49.08 71.24.03 4.45-1.7 5.89-5.72 5.82-12.05-.22-24.11-.08-36.17-.08Zm-20.23-22.57c.01.61 0 1.23.04 1.84.13 2.46 1.92 5.14 3.79 5.69 2.37.7 5.59-.35 6.74-2.69.69-1.4.54-3.22.77-4.85 2.02.02 4.05.18 6.06.03 2.17-.16 3.3-1.57 3.3-3.7s-1.12-3.54-3.3-3.7c-2.01-.15-4.04 0-6.06.03-.01-.61 0-1.23-.04-1.84-.13-2.46-1.92-5.14-3.79-5.69-2.37-.7-5.59.35-6.74 2.69-.69 1.4-.54 3.22-.77 4.85-2.02-.02-4.05-.18-6.06-.03-2.16.16-3.33 1.61-3.32 3.7.01 2.12 1.15 3.54 3.32 3.7 2.01.15 4.04 0 6.06-.03Zm35.61-44.85c-1.24-.03-2.51.09-3.72-.11-4.32-.69-9.36 3.05-10.93 7.78-1.68 5.06.57 10.24 5.1 13.29 3.02 2.04 6.24 1.37 9.45 1.34 2.17.04 4.35.13 6.52.11 3.33-.03 5.28-2.4 7.14-4.63 1.24-1.5 2.31-3.25.85-5.47-.44-.67.2-2.03.31-3.08.2-1.84-.07-3.5-1.72-4.7-.75-.54-1.63-1.1-2.03-1.87-1.28-2.47-3.41-2.84-5.84-2.74-1.71.07-3.42.05-5.13.08Zm-22.42 11.35c0-2.96-.05-5.93.02-8.89.04-1.75-.62-2.56-2.45-2.55-5.94.05-11.88.05-17.82 0-1.93-.01-2.33 1.02-2.32 2.67.04 5.77.05 11.54 0 17.31-.01 1.74.62 2.56 2.45 2.55 5.94-.05 11.88-.05 17.82 0 1.93.01 2.35-1.02 2.32-2.67-.06-2.81-.02-5.61-.02-8.42Zm26.48 18.56c-6.6-.04-11.37 4.47-11.46 10.85-.1 6.82 4.5 11.26 11.1 11.78 5.6.44 11.96-5.38 11.58-11.44-.4-6.44-4.76-11.15-11.22-11.2Z" style="fill:#119dfe;stroke-width:0"/><path class="cls-5" d="M198.86 230.62c0-8.73-.02-17.46 0-26.19.01-4.65.79-5.44 5.42-5.45 11.88-.03 23.76.24 35.63-.11 6.05-.18 11.85 5.44 11.67 11.85-.37 13.4-.38 26.82 0 40.22.18 6.54-5.73 12.05-11.64 11.88-11.87-.35-23.75-.09-35.63-.11-4.65 0-5.44-.79-5.45-5.42-.03-8.89 0-17.77 0-26.66Zm7.73 24.1c.44.2.71.43.97.43 10.32.03 20.63.1 30.95.03 4.13-.03 5.41-1.45 5.43-5.84.05-12.32.05-24.64 0-36.97-.02-4.56-1.32-5.86-5.85-5.89-9.07-.06-18.13-.02-27.2-.02h-4.3v48.25Z"/><path d="M304.08 239.33c0 4.06-.24 8.13.06 12.17.42 5.62-5.24 11.55-11.21 11.29-6.24-.28-12.51-.03-18.77-.07-5.92-.04-10.53-3.77-11.38-9.1-.95-5.94 1.81-11.16 7.31-13.14 5.84-2.11 11.79-3.92 17.69-5.86 1.92-.63 3.8-1.42 5.76-1.86 2.42-.54 3.3-1.82 3.05-4.28-.32-3.05-1.3-4.58-3.89-5.03-1.07-.18-2.18-.09-3.28-.09-7.04 0-14.08 0-21.11-.01-1.09 0-2.26.11-3.23-.26-1.56-.59-2.45-1.84-2.35-3.65.11-2.01 1.22-3.48 3.08-3.5 9.85-.11 19.72-.32 29.55.13 4.79.22 8.51 5.2 8.72 10.16.09 2.18 0 4.37 0 6.55v6.55Zm-7.53.66c-5.85 1.97-11.14 3.76-16.44 5.52-2.36.79-4.77 1.45-7.1 2.31-1.55.57-2.71 1.7-2.61 3.5.11 1.91 1.26 3.13 3.09 3.66.59.17 1.23.22 1.85.22 5.32.02 10.65.1 15.97-.01 3.73-.08 5.06-1.43 5.2-5.13.12-3.11.02-6.22.02-10.07Z" style="fill:#536986;stroke-width:0"/><path class="cls-5" d="M375.48 223.39v32.98c0 1.09.14 2.22-.06 3.27-.36 1.88-1.53 3-3.56 3.06-2.05.06-3.55-1.15-3.85-3.25-.13-.92-.04-1.87-.04-2.81v-53.9c0-.47-.04-.94-.01-1.41.16-2.88 1.44-4.28 3.85-4.24 2.36.04 3.61 1.43 3.66 4.4.07 4.64.02 9.29.02 14.34 7.39 0 14.4.09 21.4-.03 4.07-.07 7.46 1.29 9.75 4.53 1.29 1.82 2.49 4.17 2.54 6.31.26 10.62.16 21.24.1 31.87-.02 2.86-1.47 4.26-3.87 4.19-2.21-.07-3.43-1.39-3.61-3.99-.07-.93-.01-1.87-.01-2.81v-24.37c0-1.09.05-2.2-.07-3.28-.3-2.8-2.01-4.75-4.78-4.81-7-.15-14.01-.05-21.45-.05Z"/><path d="M332.89 262.72h-11.73c-.78 0-1.57.07-2.34-.03-2.18-.27-3.44-1.63-3.48-3.65-.04-2.02 1.21-3.54 3.33-3.78 1.39-.16 2.81-.05 4.22-.05h18.77c1.09 0 2.2.04 3.28-.07 2.09-.23 3.56-1.54 4-3.44.51-2.16-.96-3.44-2.89-4.19-3.91-1.53-7.81-3.07-11.72-4.59-4.06-1.58-8.24-2.9-12.14-4.79-4.54-2.19-7.14-5.83-6.87-11.2.25-4.9 2.66-8.61 7.31-10.35 1.27-.48 2.72-.69 4.09-.7 8.29-.06 16.58-.03 24.87-.03.63 0 1.26-.06 1.87.04 2.09.34 3.3 1.83 3.23 3.88-.07 2.01-1.2 3.16-3.08 3.54-.9.18-1.87.06-2.81.06h-19.24c-.94 0-1.88-.03-2.82 0-3.16.1-5.42 1.59-5.72 3.73-.25 1.8 1.07 3.36 4.02 4.51 5.94 2.31 11.91 4.55 17.86 6.82 1.74.67 3.59 1.15 5.2 2.06 4.38 2.48 7 6.04 6.65 11.4-.31 4.79-2.91 8.58-7.55 10.21-1.28.45-2.73.58-4.11.6-4.07.08-8.13.03-12.2.03Z" style="fill:#536985;stroke-width:0"/><path d="M246.76 307.96c-.23.82-.27 1.84-.76 2.51-.57.77-1.8 1.88-2.29 1.68-.95-.38-1.65-1.51-2.32-2.43-.23-.31-.05-.91-.05-1.38 0-5.78-.05-11.56.02-17.33.04-3.55.23-3.6 4.06-3.6 1.24 0 2.48-.32 3.72-.39 4.99-.29 7.98 1.79 9.14 6.76.48 2.07.66 4.36.32 6.45-.94 5.79-4.91 8.3-11.82 7.73Zm-.96-11.04c.17 1.37.14 2.32.43 3.18.62 1.88 1.68 3.23 4 3.15 2.1-.07 3.36-1.32 3.53-3.04.22-2.21.24-4.68-.53-6.7-1.03-2.68-4.94-2.66-6.36-.14-.65 1.16-.79 2.6-1.06 3.54Z" style="fill:#5e738d;stroke-width:0"/><path d="M203.73 286.99c1.54 0 2.77.05 4-.01 2.03-.09 3.59.8 5 2.15 4.7 4.48 4.3 13.76-1.07 17.36-1.63 1.09-4.02 1.16-6.1 1.43-1.33.17-2.74-.34-4.08-.19-2.23.25-2.68-.85-2.66-2.73.04-6.24.02-12.48 0-18.72 0-1.59-.15-3.39 2-3.56 2.08-.17 2.5 1.42 2.56 3.13 0 .29.16.58.34 1.15Zm-.37 9.42c0 1.58-.05 2.21 0 2.83.26 2.83 1.24 3.92 3.56 3.99 2.4.07 3.89-1.3 4.15-4.05.13-1.39.14-2.83-.08-4.2-.33-2.08-1.9-3.33-3.86-3.38-2-.05-3.27 1.1-3.69 3.44-.14.76-.1 1.55-.09 1.38Z" style="fill:#5a6f8b;stroke-width:0"/><path class="cls-13" d="M272.11 297.13c.33-1.62.49-3.18.98-4.62 1.2-3.54 4.1-5.52 7.78-5.53 3.69 0 6.73 1.96 7.93 5.39 1.16 3.32 1.15 6.74 0 10.07-1.19 3.42-4.5 5.8-7.77 5.8-3.45 0-6.83-2.52-7.96-6.14-.5-1.6-.64-3.32-.95-4.96Zm13.28.42c-.26-1.12-.44-2.18-.75-3.21-.56-1.86-1.82-2.82-3.82-2.78-2.02.05-3.35 1.27-3.72 2.99-.39 1.78-.4 3.76-.06 5.56.33 1.73 1.54 3.02 3.6 3.11 1.95.09 3.36-.59 3.94-2.55.31-1.03.54-2.07.81-3.13ZM323.84 297.34c1.52-3.38 2.66-5.92 3.81-8.46.66-1.45 1.72-2.32 3.34-1.7 1.83.7 1.49 2.3.96 3.58-2.4 5.74-4.82 11.48-7.45 17.12-1.1 2.36-3.27 3.77-5.85 4.29-1.38.28-2.97.46-3.36-1.49-.31-1.53.01-2.81 1.95-3.01.45-.04.91-.24 1.31-.46 2.35-1.3 2.96-2.88 1.93-5.42-1.52-3.74-3.14-7.44-4.7-11.17-.59-1.41-.83-2.85.99-3.47 1.62-.55 2.67.33 3.27 1.83.35.87.75 1.71 1.13 2.56.76 1.66 1.53 3.32 2.67 5.79ZM227.43 297.62c1.36-3.23 2.41-5.81 3.54-8.35.3-.68.73-1.47 1.33-1.82.58-.35 1.59-.47 2.17-.19.54.25 1.07 1.17 1.05 1.78-.03 1.04-.38 2.11-.77 3.1-1.98 4.88-3.96 9.75-6.05 14.58-1.17 2.71-3.34 4.48-6.14 5.36-1.62.51-3.27.37-3.83-1.53-.49-1.65.6-2.33 2.15-2.93 3.83-1.48 4.37-2.99 2.78-6.8-1.37-3.29-2.79-6.57-4.26-9.81-.75-1.64-.86-3.13 1.03-3.85 1.6-.62 2.59.35 3.22 1.84 1.13 2.7 2.35 5.36 3.79 8.61Z"/><path d="M298.08 291.89v7.1c0 2.24.56 3.98 3.25 4.23 1.8.17 3.04 1.23 2.56 3.12-.48 1.87-2.03 1.96-3.76 1.6-3.81-.8-6.65-3.21-6.95-7.16-.39-5.11-.24-10.26-.06-15.39.03-.95 1.16-2.16 2.1-2.64.44-.22 2.06.84 2.38 1.63.73 1.76 1.88 2.1 3.59 2.22 1.35.1 2.89.63 2.77 2.52-.12 2.02-1.53 2.46-3.26 2.47-.74 0-1.48.16-2.61.29Z" style="fill:#5f748e;stroke-width:0"/><path d="M268.96 295.55c0 2.64.02 5.27 0 7.91 0 .92.14 1.99-.28 2.72-.48.83-1.51 1.88-2.27 1.86-.79-.02-1.72-1.11-2.26-1.93-.37-.56-.26-1.49-.26-2.25-.02-5.58 0-11.16 0-16.74 0-1.89-.01-3.92 2.32-4.43 1.65-.36 2.71 1.48 2.76 4.51.04 2.79 0 5.58 0 8.37Z" style="fill:#617690;stroke-width:0"/><path class="cls-13" d="M312.45 295.27c0 2.8.03 5.61-.02 8.41-.01.92.08 2.06-.4 2.69-.55.71-1.71 1.27-2.6 1.28-.53 0-1.52-1.18-1.53-1.85-.12-6.85-.07-13.71-.09-20.56 0-1.48.75-2.66 2.12-2.45.92.14 2.06 1.29 2.37 2.23.42 1.27.14 2.77.15 4.17v6.08Z"/><circle cx="149.63" cy="215.72" r="11.49" style="fill:#2ad1f0;stroke-width:0"/><path d="M121.82 216.02c0 2.81-.04 5.62.02 8.42.03 1.65-.39 2.68-2.32 2.67-5.94-.05-11.88-.04-17.82 0-1.83.01-2.46-.8-2.45-2.55.05-5.77.04-11.54 0-17.31-.01-1.65.39-2.68 2.32-2.67 5.94.05 11.88.04 17.82 0 1.83-.01 2.48.8 2.45 2.55-.06 2.96-.02 5.93-.02 8.89Zm-11.39-6.57c-1.39 0-2.79-.07-4.18.02-2.17.13-2.91 1.07-2 2.93 1.35 2.76 2.92 5.43 4.55 8.04 1 1.59 2.54 1.49 3.59-.2 1.46-2.35 2.87-4.75 4.11-7.22 1.36-2.69.8-3.45-2.36-3.55-1.24-.04-2.48 0-3.72 0Z" style="fill:#fbfdfe;stroke-width:0"/><path d="M148.3 234.58c6.46.04 10.82 4.76 11.22 11.2.38 6.05-5.98 11.88-11.58 11.44-6.59-.52-11.2-4.96-11.1-11.78.09-6.38 4.86-10.89 11.46-10.85Zm5.46 11.41c.06-3.5-2.22-5.8-5.72-5.77-3.25.03-5.49 2.24-5.55 5.47-.06 3.5 2.22 5.8 5.72 5.77 3.25-.03 5.49-2.24 5.55-5.47Z" style="stroke-width:0;fill:#f6fbfe"/><path d="M108.64 242.17c.23-1.63.08-3.45.77-4.85 1.16-2.34 4.38-3.38 6.74-2.69 1.86.55 3.65 3.23 3.79 5.69.03.61.02 1.23.04 1.84v7.35c-.23 1.63-.08 3.45-.77 4.85-1.16 2.34-4.38 3.38-6.74 2.69-1.86-.55-3.65-3.23-3.79-5.69-.03-.61-.02-1.23-.04-1.84v-7.35Z" style="fill:#27d0f0;stroke-width:0"/><path d="M144.25 204.67c-.83.63-1.62 1.31-2.49 1.89-6.65 4.41-6.67 14.07-.09 18.52.86.58 1.66 1.27 2.48 1.91-3.21.03-6.43.7-9.45-1.34-4.53-3.06-6.78-8.23-5.1-13.29 1.57-4.73 6.61-8.47 10.93-7.78 1.21.19 2.48.08 3.72.11Z" style="fill:#f5fbfe;stroke-width:0"/><path class="cls-15" d="M108.64 242.17v7.35c-2.02.02-4.05.18-6.06.03-2.17-.16-3.31-1.59-3.32-3.7-.01-2.09 1.15-3.53 3.32-3.7 2.01-.15 4.04 0 6.06.03ZM119.98 249.51v-7.35c2.02-.02 4.05-.18 6.06-.03 2.17.16 3.3 1.57 3.3 3.7s-1.12 3.54-3.3 3.7c-2.01.15-4.04 0-6.06-.03Z"/><path d="M110.43 209.44c1.24 0 2.48-.04 3.72 0 3.16.11 3.72.86 2.36 3.55-1.25 2.47-2.65 4.87-4.11 7.22-1.05 1.69-2.59 1.8-3.59.2-1.64-2.61-3.2-5.28-4.55-8.04-.91-1.86-.17-2.8 2-2.93 1.39-.08 2.79-.02 4.18-.02Z" style="fill:#39d5f1;stroke-width:0"/><path d="M153.76 245.99c-.06 3.23-2.3 5.44-5.55 5.47-3.5.03-5.78-2.27-5.72-5.77.06-3.23 2.3-5.44 5.55-5.47 3.5-.03 5.78 2.27 5.72 5.77Z" style="fill:#2ed3f1;stroke-width:0"/></svg>
