<?xml version="1.0" encoding="UTF-8"?><svg id="Layer_1" xmlns="http://www.w3.org/2000/svg" viewBox="0 0 500 500"><defs><style>.cls-1{fill:#7d353b;}.cls-1,.cls-2,.cls-3,.cls-4{stroke-width:0px;}.cls-2{fill:#262730;}.cls-3{fill:#bd4043;}.cls-4{fill:#ff4b4b;}</style></defs><path class="cls-4" d="m249.21,209.3l-21.99-11.62-38.17-20.18s-.1-.04-.14-.04c-1.39-.66-2.82.73-2.3,2.13l19.45,49.61h0c.02.06.04.11.06.16.8,1.85,2.54,2.99,4.44,3.44.16.03.27.07.47.1.19.04.46.1.69.12.04,0,.07,0,.11,0h.03s.06,0,.08,0h.04s.05,0,.08,0h.05s.06,0,.08,0h0c24.63,2.69,49.49,2.69,74.12,0h0c.3,0,.59-.01.86-.04.09-.01.18-.02.27-.03.01,0,.02,0,.03,0,.06,0,.12-.02.18-.03.09-.01.17-.03.26-.05.17-.04.25-.07.49-.15.24-.08.63-.22.87-.34.25-.12.42-.23.62-.36.25-.16.5-.32.74-.51.11-.08.18-.13.25-.21l-.04-.02-41.63-22Z"/><path class="cls-1" d="m309.44,177.5h-.03l-38.19,20.18,21.23,31.62,19.4-49.7v-.07c.49-1.46-1.01-2.79-2.41-2.02"/><path class="cls-3" d="m251.24,167.91c-.98-1.43-3.1-1.43-4.04,0l-19.98,29.77,21.99,11.62,41.68,22.03c.26-.26.47-.51.69-.77.31-.39.61-.8.86-1.26l-21.23-31.62-19.97-29.77Z"/><path class="cls-2" d="m110.37,282.79h7.69c-.35-9.9-9.48-17.3-22.17-17.3s-22.43,7.31-22.43,18.33c0,8.84,6.41,14.1,16.66,17.05l8.08,2.31c6.92,1.92,13.07,4.36,13.07,10.89,0,7.18-6.92,11.92-16.02,11.92-7.82,0-14.74-3.46-15.38-10.89h-8.2c.77,10.77,9.49,18.07,23.58,18.07,15.12,0,23.71-8.33,23.71-18.97,0-12.3-11.66-16.28-18.46-18.07l-6.66-1.79c-4.87-1.28-12.69-3.85-12.69-10.89,0-6.28,5.77-10.89,14.48-10.89,7.95,0,13.97,3.78,14.74,10.25Zm40.23,0h-10.51v-11.79h-7.56v11.79h-7.43v6.41h7.43v30.76c0,8.59,6.92,12.69,13.33,12.69,2.82,0,4.61-.51,5.64-.9l-1.54-6.79c-.64.13-1.67.38-3.33.38-3.33,0-6.54-1.03-6.54-7.43v-28.71h10.51v-6.41Zm9.57,49.22h7.56v-31.15c0-6.67,5.25-11.54,12.43-11.54,2.02,0,4.1.38,4.61.51v-7.69c-.87-.06-2.85-.13-3.97-.13-5.9,0-11.02,3.33-12.82,8.2h-.51v-7.43h-7.31v49.22Zm50.91,1.03c10,0,17.3-5,19.61-12.43l-7.31-2.05c-1.92,5.13-6.38,7.69-12.3,7.69-8.88,0-15-5.74-15.35-16.28h35.73v-3.2c0-18.33-10.89-24.61-21.15-24.61-13.33,0-22.17,10.51-22.17,25.63s8.72,25.25,22.94,25.25Zm-15.35-29.61c.51-7.66,5.93-14.48,14.58-14.48,8.2,0,13.46,6.15,13.46,14.48h-28.04Zm59.91,29.74c8.59,0,13.07-4.61,14.61-7.82h.38v6.66h7.56v-32.43c0-15.64-11.92-17.43-18.2-17.43-7.43,0-15.89,2.56-19.74,11.54l7.18,2.56c1.67-3.59,5.61-7.43,12.82-7.43s10.38,3.69,10.38,10v.26c0,3.65-3.72,3.33-12.69,4.49-9.13,1.19-19.1,3.2-19.1,14.48,0,9.61,7.43,15.12,16.79,15.12Zm1.15-6.79c-6.02,0-10.38-2.69-10.38-7.95,0-5.77,5.26-7.56,11.15-8.33,3.2-.38,11.79-1.28,13.07-2.82v6.92c0,6.15-4.87,12.18-13.84,12.18Zm33.4,5.64h7.56v-30.76c0-7.21,5.26-12.3,11.15-12.3s9.74,3.75,9.74,9.36v33.71h7.69v-32.04c0-6.34,3.97-11.02,10.89-11.02,5.38,0,10,2.85,10,10.13v32.94h7.56v-32.94c0-11.57-6.22-16.92-15-16.92-7.05,0-12.21,3.24-14.74,8.33h-.51c-2.44-5.26-6.73-8.33-13.2-8.33s-11.15,3.08-13.2,8.33h-.64v-7.69h-7.31v49.22Zm84.18-65.63h-7.56v65.63h7.56v-65.63Zm12.05,65.63h7.56v-49.22h-7.56v49.22Zm3.85-57.42c2.95,0,5.38-2.31,5.38-5.13s-2.44-5.13-5.38-5.13-5.38,2.31-5.38,5.13,2.44,5.13,5.38,5.13Zm37.17,8.2h-10.51v-11.79h-7.56v11.79h-7.43v6.41h7.43v30.76c0,8.59,6.92,12.69,13.33,12.69,2.82,0,4.61-.51,5.64-.9l-1.54-6.79c-.64.13-1.67.38-3.33.38-3.33,0-6.54-1.03-6.54-7.43v-28.71h10.51v-6.41Z"/></svg>