<?xml version="1.0" encoding="UTF-8"?><svg id="Layer_1" xmlns="http://www.w3.org/2000/svg" viewBox="0 0 500 500"><defs><style>.cls-1{fill:#2de0c6;}.cls-1,.cls-2,.cls-3{stroke-width:0px;}.cls-2{fill:#212d2c;}.cls-3{fill:#a9fdff;}</style></defs><path class="cls-1" d="m79.96,313.68h7.15v6.03c.71-2.06,1.86-3.7,3.45-4.95,1.54-1.23,3.45-1.89,5.43-1.88,1.41,0,2.39.13,2.92.4l-1,7.29c-.4-.27-1.26-.4-2.59-.4-2.07,0-3.97.66-5.66,2.01-1.69,1.34-2.56,3.49-2.56,6.42v15.8h-7.15v-30.72Z"/><path class="cls-2" d="m110.17,313.68h7.15v5.56c.96-2.09,2.39-3.68,4.27-4.75,1.88-1.08,4.03-1.61,6.46-1.61,5.43.05,8.76,1.94,10.01,5.69.96-1.74,2.42-3.12,4.37-4.15,1.89-1.01,4.02-1.54,6.16-1.54,3.19,0,5.59.61,7.22,1.84s2.72,2.97,3.29,5.21.83,5.28.83,9.06v15.4h-7.22v-15.45c0-3.62-.37-6.21-1.1-7.77-.73-1.56-2.12-2.34-4.2-2.34-2.79,0-4.9.95-6.32,2.84s-2.16,4.38-2.16,7.45v15.27h-7.15v-16.53c0-2.36-.08-4.13-.27-5.29-.18-1.16-.66-2.07-1.46-2.74s-2.07-1-3.83-1.01c-1.54,0-2.99.46-4.33,1.41-1.34.93-2.42,2.19-3.25,3.78-.81,1.58-1.24,3.34-1.23,5.11v15.25h-7.22v-30.71h0Z"/><path class="cls-2" d="m174.93,343.09c-2.32-1.31-4.17-3.19-5.56-5.63s-2.09-5.28-2.09-8.53.61-6.03,1.83-8.43c1.21-2.41,2.95-4.28,5.2-5.63,2.26-1.34,4.9-2.01,7.95-2.01,1.69-.02,3.39.3,4.96.93,1.54.63,2.85,1.39,3.9,2.31,1.06.91,1.76,1.81,2.12,2.71l.13-5.15h6.82v30.71h-6.76l-.13-5.43c-.75,1.61-2.12,3.02-4.1,4.25-1.99,1.23-4.22,1.84-6.69,1.84-2.66.05-5.28-.63-7.59-1.94Zm15.14-6.69c1.73-1.76,2.59-4.07,2.59-6.92v-.46c0-1.93-.4-3.64-1.2-5.15-.8-1.51-1.88-2.71-3.25-3.55-1.34-.85-2.92-1.28-4.5-1.28-2.82,0-5.01.93-6.56,2.77-1.54,1.86-2.32,4.25-2.32,7.19s.76,5.41,2.29,7.25c1.53,1.86,3.72,2.77,6.59,2.77,2.51.02,4.63-.86,6.36-2.62h0Z"/><path class="cls-2" d="m209.61,313.68h7.15v6.03c.71-2.06,1.86-3.7,3.45-4.95,1.54-1.23,3.45-1.89,5.43-1.88,1.41,0,2.39.13,2.92.4l-1,7.29c-.4-.27-1.26-.4-2.59-.4-2.07,0-3.97.66-5.66,2.01-1.69,1.34-2.56,3.49-2.56,6.42v15.8h-7.15v-30.72Z"/><path class="cls-2" d="m261.08,344.4h-8.42l-6.16-10.04-1.73-3.42-3.97,4.35v9.1h-6.89v-49.18h6.82v26.97l-.13,5.21,11.59-13.71h8.81l-11.45,12.85,11.52,17.88Z"/><path class="cls-2" d="m272.65,343.09c-2.32-1.31-4.17-3.19-5.56-5.63-1.39-2.42-2.09-5.28-2.09-8.53,0-4.86,1.34-8.75,4.03-11.69s6.34-4.38,10.94-4.38c2.56,0,4.9.63,7.02,1.91s3.55,2.81,4.3,4.58l-.33-5.21v-18.94h7.02v49.2h-6.82l-.13-5.43c-.75,1.61-2.12,3.02-4.1,4.25-1.99,1.23-4.22,1.84-6.69,1.84-2.66.02-5.28-.66-7.59-1.98Zm15.14-6.76c1.73-1.76,2.59-4.07,2.59-6.92v-.46c0-1.93-.4-3.64-1.2-5.15-.8-1.51-1.88-2.71-3.25-3.55-1.34-.85-2.92-1.28-4.5-1.28-2.82,0-5.01.93-6.56,2.77-1.54,1.86-2.32,4.25-2.32,7.19s.76,5.41,2.29,7.25c1.53,1.84,3.72,2.77,6.59,2.77,2.51.02,4.63-.86,6.36-2.62Z"/><path class="cls-2" d="m313.28,342.93c-2.39-1.38-4.33-3.4-5.63-5.83-1.33-2.46-1.99-5.18-1.99-8.17s.65-5.64,1.96-8.1c1.28-2.42,3.22-4.45,5.59-5.83,2.42-1.43,5.23-2.14,8.42-2.14s5.98.71,8.38,2.14c2.36,1.38,4.3,3.4,5.56,5.83,1.29,2.46,1.96,5.15,1.96,8.1s-.66,5.71-1.99,8.17c-1.29,2.42-3.24,4.43-5.59,5.83-2.41,1.43-5.18,2.14-8.32,2.14s-5.91-.71-8.35-2.14Zm14.61-6.62c1.48-1.93,2.22-4.33,2.22-7.22s-.8-5.34-2.39-7.32c-1.59-1.99-3.68-2.97-6.29-2.97s-4.55.98-6.06,2.94c-1.53,1.96-2.29,4.42-2.29,7.35s.81,5.26,2.46,7.19,3.73,2.9,6.29,2.9,4.58-.96,6.06-2.87h0Z"/><path class="cls-2" d="m363.71,327.34l-9.01,17.06h-1.26l-12.78-30.71h7.69l6.56,17.86,8.68-17.86h.27l8.75,17.73,6.56-17.73h7.55l-12.73,30.71h-1.26l-9-17.06Z"/><path class="cls-2" d="m391.59,313.68h7.02l.07,5.63c.85-1.88,2.16-3.42,3.97-4.61,1.81-1.21,3.93-1.81,6.36-1.81,3.14,0,5.54.66,7.22,1.98s2.81,3.15,3.39,5.51.86,5.44.86,9.23v14.81h-7.15v-14.59c0-3.88-.38-6.69-1.13-8.4-.75-1.71-2.29-2.57-4.63-2.57-1.33,0-2.67.41-4.03,1.24-1.36.83-2.51,2.02-3.42,3.57-.91,1.56-1.36,3.39-1.36,5.49v15.27h-7.15v-30.74Z"/><path class="cls-2" d="m90.52,301c-3.72.13-7.42.73-10.99,1.76l35.04-22.24c.05-.61.22-1.51.83-2.31.96-1.23,2.47-1.49,2.77-1.56,3.5-.78,13.36-7.77,20.47-16.12,0,0,6.42-7.54,10.56-17.3.75-1.78,1.23-3.09,1.29-3.29,15.19-39.77,156.26-67.39,172.02-70.39,23.2-4.42,55.47-9.94,94.53-14.62-17.1,5.21-33.83,11.55-50.08,18.96-96.82,44.13-151.06,114.99-190.78,99.16-.15-.07-.43-.18-.83-.33-9.51-3.73-22.97-8.98-34.47-4.65-8.03,3.02-17.11,11.49-18.61,14.17-.18.3-.88,1.74-2.34,2.27-1.06.38-2.16.15-2.97-.15-9.59,4.2-18.51,9.81-26.44,16.63h0Z"/><path class="cls-3" d="m150.14,254.16c29.59-20,68.62-42.54,116.77-61.31,38.03-14.82,77.5-25.63,117.78-32.22-54.23,14.11-106.68,32.47-157.37,55.07-26.21,11.69-51.94,24.5-77.18,38.46Z"/><path class="cls-3" d="m150.15,254.21l-.05-.08c36.62-24.75,75.9-45.38,116.79-61.31,37.96-14.81,77.58-25.64,117.78-32.22l.02.1c-26.99,7.02-53.89,15.22-80,24.35-26.11,9.13-52.14,19.47-77.36,30.72-26.06,11.62-52.02,24.55-77.17,38.44Zm233.44-93.35c-39.82,6.59-79.07,17.36-116.67,32.03-40.52,15.78-79.49,36.2-115.82,60.67,24.83-13.68,50.46-26.42,76.19-37.89,25.23-11.25,51.26-21.59,77.36-30.72,25.78-9.03,52.32-17.13,78.94-24.08Z"/><path class="cls-3" d="m261.44,241.31c-4.45-7.4-11.35-13-19.52-15.8,10.06.55,19.79,3.75,28.18,9.3"/><path class="cls-3" d="m289.16,220.7c-5.76-6.52-13.2-11.35-21.48-13.99,10.59.3,20.98,2.89,30.46,7.59"/><path class="cls-3" d="m304.17,210.04c-1.98-1.51-4.12-2.82-6.36-3.92-5.46-2.66-10.03-3.19-9.99-3.42.05-.23,4.55.23,10.06,1.61,3.4.85,6.74,1.94,9.99,3.27"/></svg>