<?xml version="1.0" encoding="UTF-8"?><svg id="Layer_1" xmlns="http://www.w3.org/2000/svg" viewBox="0 0 500 500"><defs><style>.cls-1{fill:#2d86c7;isolation:isolate;opacity:.9;stroke-width:0px;}</style></defs><path class="cls-1" d="m135.93,259.64h0c-1.55-.04-.52,0,0,0Zm-.04,0c-1.5-.04-.85,0-.33,0h.79-.46c.33,0,.46.05,0,0Zm38.89-22.89c3.23-12.51-11.95-29.18-13.21-30.77-.01-.01-.03-.03-.04-.05-18.22-18.64-8.85-37.25,3.87-35.2,9.15,1.5,4.42,14.92,9.34,16.23h.1c2.95.29,8.72-6.81,9.57-9.2,3.28-9.29-15.67-14.97-21.44-14.59-11.58.7-19.19,6.99-23.84,17.37-8.53,19.09,7.41,31.81,17.08,44.91,7.32,9.9,6.99,18.72-1.97,27.21-9.85,9.34-19.86-3.9-21.17-12.95-1.18-8.3-2.53-13.7-9.48-3.15-6.43,9.8,2.53,21.84,10.63,23.11,1.91.14,32.05,6.74,40.56-22.92Zm125.88,52.5c-44.47,4.03-109.93,10.04-123.72,58.19-.1.29-.33.42-.62.33-.14-.04-.23-.1-.29-.23-13.51-23.08-42.54-40.03-69.48-39.22-.29.04-.52-.1-.56-.37s.1-.52.37-.56c69.35-34.43,140.18-17.93,215.07-31.3,31.38-8.22,50.88-22.86,61.48-47.78,1.76-3.04,1.67-7.73-3.21-4.39-7.55,5.11-14.51,12.53-22.71,16.52-.37.19-.79.37-1.22.52-.14.04-.23.19-.29.33-23.78,54.26-89.95,9.53-12.29-1.78.19-.04.33-.19.33-.33l4.38-14.22c.1-.29-.1-.52-.33-.62-.19-.04-.42.04-.52.19-1.78,2.63-3.75,5.11-5.87,7.47-2.76,2.91-4.92,4.69-6.56,5.35-1.87.7-3.84,1.12-5.81,1.22-2.35.14-4.36-.79-5.91-2.76-1.55-1.97-2.39-4.88-2.58-8.72-.04-.62-.04-1.31,0-2.06.04-.29-.1-.52-.33-.62-.29-.04-.52.1-.62.33-.75,1.45-1.5,2.82-2.26,4.03-2.2,3.84-4.98,7.37-8.12,10.52-3.09,3.09-6.1,4.75-8.86,4.92-5.21.33-8.03-2.63-8.4-8.82-.37-5.91,1.97-18.06,7.04-36.17.29-.79.37-1.64.33-2.43-.1-1.64-1.03-2.3-2.95-2.16-2.2.19-4.32,1.08-6.06,2.53-2.16,1.83-3.94,4.09-5.21,6.62-1.55,2.82-2.91,5.73-4.17,8.68-1.31,3.24-2.39,6.62-3.24,10.04-.94,3.8-1.74,6.99-2.26,9.48-.56,2.58-1.08,5.31-1.6,8.12-.37,1.97-.79,4.42-.89,4.79l-.1.37s-12.79.89-12.9.85c-.27-2.3,2.28-11.06,2.56-12.39-2.34,4.09-3.25,5.39-5.14,7.89-1.22,1.55-2.54,3.02-3.94,4.42-3.09,3.09-6.1,4.75-8.86,4.92h-.56c-4.55,0-7.12-3.57-7.55-10.6-.1-1.41-.14-2.82-.1-4.27.04-.29-.1-.52-.33-.62-.29-.04-.52.1-.62.33-7.08,12.99-13.47,19.57-19.38,19.94-5.21.33-8.03-2.76-8.45-9.24-.46-7.18,1.5-17.7,5.87-31.21.94-3.34,1.35-5.63,1.27-6.85-.14-1.87-.98-2.11-1.7-2.11h-.19c-.62.04-1.93.42-4.69,2.16-2.43,1.6-4.55,3.57-6.29,5.87-2.02,2.63-3.61,5.58-4.79,8.68-1.22,3.28-2.2,6.14-2.91,8.53-.71,2.39-1.41,5.35-2.11,8.72-.7,3.38-1.31,6.29-1.87,8.45-.56,2.16-1.12,4.65-1.7,7.51l-.1.37-12.39.79c-.29,0-.52-.19-.52-.46v-.19h0c1.83-6.33,4.42-16.61,7.7-30.49,3.28-13.89,6.29-25.01,8.72-32.98,2.11-6.95,4.59-13.8,7.51-20.42,2.26-5.16,5.31-10,9.01-14.26,3.51-3.94,7.47-6.06,11.64-6.33,4.42-.29,6.76,1.93,7.08,6.48.19,3.05-.7,7.14-2.63,12.25-3.51,9.05-9.38,19.61-17.5,31.38-.19.19-.19.52,0,.7s.52.19.7,0c1.41-1.08,2.91-2.06,4.5-2.86,2.35-1.22,4.92-1.93,7.6-2.16,5.02-.33,7.7,1.97,8.03,6.81.14,1.78-.04,3.57-.56,5.25-.46,1.55-.98,3.38-1.6,5.4-.56,2.02-1.03,3.71-1.41,4.98-.37,1.31-.85,3.05-1.45,5.25-.62,2.2-1.08,4.13-1.35,5.63-.85,3.8-1.18,6.85-1.03,9.05.19,2.82,1.31,2.82,1.7,2.82h.14c4.75-.29,10.32-8.53,16.66-24.49.04-.1.04-.14.1-.23,1.45-5.25,3.28-10.42,5.48-15.38,2.63-5.77,5.81-8.82,9.57-9.05l7.51-.37c.29,0,.52.19.52.46,0,.14-.04.29-.14.37h0c-1.18,1.12-2.72,4.13-4.59,8.96-1.97,5.21-3.34,8.78-4.23,11.17-.89,2.49-1.93,5.87-3.01,10.09-1.08,4.23-1.55,7.6-1.35,10.13.23,3.34,1.5,3.34,1.93,3.34h.14c.66-.04,1.87-.52,4.08-2.53,1.7-1.55,3.15-3.28,4.36-5.21,1.12-1.83,2.35-4.13,3.71-6.95,1.35-2.82,2.53-5.25,3.51-7.32,1.08-2.2,1.5-2.95,1.78-3.24l.62-1.12c2.3-9.29,3.38-15.81,3.15-19.43,0-.62-.14-1.22-.42-1.78h0c-.14-.19-.14-.52.1-.66.1-.04.19-.1.29-.1l5.21-.33c3.05-.19,4.98,0,5.96.66.98.66,1.6,1.74,1.64,2.86,0,1.12-.1,2.3-.33,3.42-.04.29.14.52.42.56.14.04.33-.04.42-.14,5.87-6.1,11.97-9.38,18.26-9.76,5.02-.33,7.74,2.06,8.03,7.08.1,1.6,0,3.19-.33,4.79-.33,1.6-1.12,4.69-2.53,9.48-2.95,10.27-4.36,17.18-4.13,20.55.14,2.39,1.08,2.68,1.78,2.68h.14c.66-.04,1.87-.52,4.03-2.58,1.7-1.6,3.15-3.38,4.42-5.31,1.35-2.2,2.63-4.5,3.75-6.85,1.35-2.72,2.49-5.16,3.47-7.22.33-.75.62-1.31.85-1.78,0-.04.04-.04.04-.1,1.35-5.73,2.95-10.46,4.79-14.13,2.11-4.32,4.5-7.18,7.04-8.59,2.53-1.41,6-2.2,10.46-2.49h0c.56-.04,1.03.37,1.08.89v.1c.04.52-.23,1.08-.79,1.78-3.15,3.42-6.19,9.48-9.15,18.02-2.95,8.53-4.23,15.71-3.9,21.44.19,2.63.85,3.99,1.97,3.99h.1c2.76-.19,6.29-3.61,10.37-10.23,3.99-6.29,7.12-13.05,9.38-20.13.29-.94.66-2.26,1.18-4.03.52-1.78.89-2.95,1.08-3.61s.56-1.6,1.03-2.76c.31-.92.78-1.75,1.33-2.53.03-.04.05-.07.08-.11.37-.41.92-.96,1.55-1.64.66-.7,1.41-1.22,2.3-1.5,2.2-.66,4.46-1.08,6.76-1.27l5.21-.33c.23-.1.52.04.62.29.1.23-.04.52-.29.62l-.1.1c-2.35,1.83-4.65,6.19-6.8,12.99-1.78,5.77-3.28,11.12-4.46,15.86-1.18,4.75-1.93,7.64-2.2,8.68-.29,1.03-.89,3.57-1.83,7.41-.7,2.91-1.31,5.31-1.83,7.22-.1.23,0,.52.23.62.14.04.33.04.46-.1,5.11-3.05,9.8-6.71,14.07-10.89,2.39-2.39,21.39-22.44,21.39-9.76-1.19,47.05-48.87,71.4-93.35,75.43Zm-80.27-132.92c-1.83.1-5.07,2.91-9.94,15.48-3.38,8.68-6.66,18.58-9.8,29.47-.1.29.1.52.33.62.19.04.42,0,.56-.19,8.45-12.91,14.3-23.64,17.41-32.04,1.93-5.73,2.82-9.53,2.72-11.21-.14-2.06-.94-2.06-1.18-2.06l-.1-.05Zm121.12,89.91c-1.96.37-26,6.56-23.56,11.88,2.78,6.03,18.99-1.65,23.56-11.88Zm-83.17-61.85h0c3.01-.14,6.76-1.27,7.64-5.73.42-2.02-.79-4.32-1.55-4.98-.75-.66-1.78-.94-3.15-.85s-3.01.94-4.55,2.39c-2.06,1.93-1.97,4.69-1.31,6.52.62,1.56,1.7,2.58,2.91,2.64Z"/></svg>